<svg width="125" height="76" viewBox="0 0 125 76" fill="none" xmlns="http://www.w3.org/2000/svg">
<path d="M0 76V41.4545C0 39.4095 0.592593 37.2308 1.77778 34.9185C2.96296 32.6063 4.68519 30.8698 6.94444 29.7091V13.8182C6.94444 9.92145 8.28009 6.64424 10.9514 3.98655C13.6227 1.32885 16.9167 0 20.8333 0H52.0833C54.4769 0 56.5208 0.490544 58.2153 1.47164C59.9051 2.44812 61.3333 3.8 62.5 5.52727C63.6667 3.8 65.0949 2.44812 66.7847 1.47164C68.4792 0.490544 70.5232 0 72.9167 0H104.167C108.083 0 111.377 1.32885 114.049 3.98655C116.72 6.64424 118.056 9.92145 118.056 13.8182V29.7091C120.315 30.8698 122.037 32.6063 123.222 34.9185C124.407 37.2308 125 39.4095 125 41.4545V76H118.056V62.1818H6.94444V76H0ZM65.9722 27.6364H111.111V13.8182C111.111 11.8606 110.444 10.2185 109.111 8.892C107.778 7.56545 106.13 6.90448 104.167 6.90909H72.9167C70.9491 6.90909 69.2986 7.57236 67.9653 8.89891C66.6319 10.2255 65.9676 11.8652 65.9722 13.8182V27.6364ZM13.8889 27.6364H59.0278V13.8182C59.0278 11.8606 58.3611 10.2185 57.0278 8.892C55.6944 7.56545 54.0463 6.90448 52.0833 6.90909H20.8333C18.8657 6.90909 17.2153 7.57236 15.8819 8.89891C14.5486 10.2255 13.8843 11.8652 13.8889 13.8182V27.6364ZM6.94444 55.2727H118.056V41.4545C118.056 39.497 117.389 37.8549 116.056 36.5284C114.722 35.2018 113.074 34.5408 111.111 34.5455H13.8889C11.9213 34.5455 10.2708 35.2087 8.9375 36.5353C7.60417 37.8618 6.93982 39.5016 6.94444 41.4545V55.2727Z" fill="#636363"/>
</svg>
