<svg width="97" height="105" viewBox="0 0 97 105" fill="none" xmlns="http://www.w3.org/2000/svg">
<path d="M81.995 66.5H60.0645V59.5H81.995V66.5ZM97 96.8333H75.0695V89.8333H97V96.8333ZM90.0746 81.6667H66.9899V74.6667H90.0746V81.6667Z" fill="#636363"/>
<path d="M48.5228 67.6667C48.4966 64.5025 47.7809 61.0752 46.2143 58.3333C44.6478 55.5915 41.9905 52.9435 39.2889 51.3333L66.9906 3.5L60.0652 0L32.3635 49C28.9051 48.221 25.3818 48.0154 21.9754 49C18.5689 49.9846 15.2653 52.3252 12.7415 54.8333C-1.18297 68.3746 -0.00722284 100.157 0.044845 101.5C0.08329 102.468 0.505733 103.162 1.19908 103.833C1.89243 104.504 2.54642 105.001 3.50756 105H60.0652C60.8458 105 60.5862 104.294 61.2194 103.833C61.8527 103.373 63.281 103.413 63.5279 102.667C63.7747 101.92 63.7606 101.085 63.5279 100.333C63.2951 99.5821 61.8439 98.4722 61.2194 98C48.0537 88.04 48.5228 67.8692 48.5228 67.6667ZM30.055 56C33.0317 56.033 34.851 57.4025 36.9804 59.5C39.1098 61.5975 40.3409 64.6669 40.4431 67.6667C40.4431 67.8092 41.5416 67.8546 41.5974 68.8333L19.6669 59.5C21.1123 58.2982 22.4903 57.7126 24.2838 57.1667C26.0773 56.6207 28.1915 55.8054 30.055 56ZM42.7516 98C39.7789 94.9479 37.5055 90.5782 36.9804 86.3333H30.055C30.3214 90.3244 31.4204 94.6047 33.5177 98H25.4381C23.9086 93.1333 22.2861 87.9289 21.9754 82.8333H15.0499C15.2898 87.9136 15.9551 93.1147 17.3584 98H6.97027C7.08556 91.115 8.26865 75.3121 13.8957 65.3333L42.7516 78.1667C44.0977 85.2141 46.6419 92.1979 50.8313 98H42.7516Z" fill="#636363"/>
</svg>
