<svg width="103" height="89" viewBox="0 0 103 89" fill="none" xmlns="http://www.w3.org/2000/svg">
<path d="M47.8224 14.9668V7.41667H36.7894C35.814 7.41667 34.8786 7.02597 34.1889 6.33052C33.4992 5.63507 33.1118 4.69184 33.1118 3.70833C33.1118 2.72482 33.4992 1.78159 34.1889 1.08615C34.8786 0.390699 35.814 0 36.7894 0H66.2106C67.186 0 68.1214 0.390699 68.8111 1.08615C69.5008 1.78159 69.8882 2.72482 69.8882 3.70833C69.8882 4.69184 69.5008 5.63507 68.8111 6.33052C68.1214 7.02597 67.186 7.41667 66.2106 7.41667H55.1776V14.9668C62.2335 15.4745 69.1098 17.4428 75.3778 20.749C81.6458 24.0551 87.171 28.6281 91.6086 34.1828C96.0462 39.7375 99.301 46.1546 101.17 53.0339C103.039 59.9132 103.482 67.107 102.472 74.1667H0.527828C-0.482461 67.107 -0.0392304 59.9132 1.82987 53.0339C3.69897 46.1546 6.95384 39.7375 11.3914 34.1828C15.829 28.6281 21.3542 24.0551 27.6222 20.749C33.8902 17.4428 40.7665 15.4745 47.8224 14.9668ZM7.36825 66.75H95.6318C95.6318 60.9062 94.4902 55.1196 92.2724 49.7206C90.0546 44.3216 86.8039 39.416 82.7059 35.2837C78.6078 31.1515 73.7428 27.8737 68.3885 25.6374C63.0342 23.401 57.2955 22.25 51.5 22.25C45.7045 22.25 39.9658 23.401 34.6115 25.6374C29.2572 27.8737 24.3921 31.1515 20.2941 35.2837C16.1961 39.416 12.9454 44.3216 10.7276 49.7206C8.50975 55.1196 7.36825 60.9062 7.36825 66.75ZM3.6906 81.5833H99.3094C100.285 81.5833 101.22 81.974 101.91 82.6695C102.6 83.3649 102.987 84.3082 102.987 85.2917C102.987 86.2752 102.6 87.2184 101.91 87.9139C101.22 88.6093 100.285 89 99.3094 89H3.6906C2.71523 89 1.77981 88.6093 1.09011 87.9139C0.400422 87.2184 0.0129567 86.2752 0.0129567 85.2917C0.0129567 84.3082 0.400422 83.3649 1.09011 82.6695C1.77981 81.974 2.71523 81.5833 3.6906 81.5833Z" fill="#636363"/>
</svg>
