<svg width="30" height="45" viewBox="0 0 30 45" fill="none" xmlns="http://www.w3.org/2000/svg">
<path d="M15 1C7.27083 1 1 7.38841 1 15.0495C1 23.8646 10.5729 37.3199 14 42.1449C14.1423 42.3485 13.7846 43.0341 14 43.1484C14.2154 43.2627 14.7583 43.1484 15 43.1484C15.2417 43.1484 15.7846 43.2627 16 43.1484C16.2154 43.0341 15.8577 42.3485 16 42.1449C19.4271 37.3219 29 23.8717 29 15.0495C29 7.38841 22.7292 1 15 1Z" stroke="white" stroke-width="2" stroke-linecap="round" stroke-linejoin="round"/>
<path d="M19 13.9842C19 16.1889 17.2103 17.9782 15 17.9782C12.7897 17.9782 11 16.1889 11 13.9842C11 11.7795 12.7897 9.99023 15 9.99023C17.2103 9.99023 19 11.7795 19 13.9842Z" stroke="white" stroke-width="2"/>
</svg>
