<svg width="85" height="101" viewBox="0 0 85 101" fill="none" xmlns="http://www.w3.org/2000/svg">
<path d="M42.5 0L0 14.4286V57.7143C0 81.6229 19.0254 101 42.5 101C65.9746 101 85 81.6229 85 57.7143V14.4286L42.5 0ZM77.0312 57.7143C77.0312 77.1365 61.5697 92.8839 42.5 92.8839C23.4303 92.8839 7.96875 77.1365 7.96875 57.7143V20.5156L42.5 8.11607L77.0312 20.5156V57.7143Z" fill="#636363"/>
<path d="M27.8201 46.897C27.45 46.5174 27.01 46.2163 26.5255 46.0108C26.0409 45.8053 25.5214 45.6995 24.9967 45.6995C24.472 45.6995 23.9525 45.8053 23.468 46.0108C22.9834 46.2163 22.5434 46.5174 22.1733 46.897C21.8014 47.2748 21.5063 47.7239 21.305 48.2184C21.1036 48.713 21 49.2432 21 49.7788C21 50.3143 21.1036 50.8446 21.305 51.3391C21.5063 51.8336 21.8014 52.2827 22.1733 52.6605L36.529 67.3128L36.7619 67.5506C37.1121 67.9086 37.528 68.1927 37.9858 68.3865C38.4436 68.5803 38.9344 68.6801 39.4301 68.6801C39.9257 68.6801 40.4165 68.5803 40.8743 68.3865C41.3321 68.1927 41.748 67.9086 42.0982 67.5506L66.8934 42.2431C67.2442 41.8858 67.5225 41.4613 67.7124 40.994C67.9023 40.5267 68 40.0258 68 39.5199C68 39.014 67.9023 38.5131 67.7124 38.0458C67.5225 37.5785 67.2442 37.154 66.8934 36.7966L66.5827 36.4796C66.2326 36.1215 65.8167 35.8375 65.3589 35.6437C64.901 35.4499 64.4103 35.3501 63.9146 35.3501C63.419 35.3501 62.9282 35.4499 62.4704 35.6437C62.0125 35.8375 61.5966 36.1215 61.2465 36.4796L39.4245 58.7411L27.8201 46.897Z" fill="#636363"/>
</svg>
